<svg xmlns="http://www.w3.org/2000/svg" height="247.2" width="395.52" xmlns:v="https://vecta.io/nano"><svg height="247.2" width="395.52"><g transform="translate(75.544 55.796)"><svg height="135.608" width="244.431"><svg height="135.608" width="244.431"><svg height="135.608" width="244.431"><svg height="135.608" width="244.431"><svg height="135.608" width="244.431"><svg height="135.608" width="244.431"><svg width="244.431" viewBox="2 -35.4 65.25 36.2" height="135.608"><path d="M34.55-34.6L37.2 0H30l-.75-14.05q-.35-6.3-.35-10.7h0q0-2.35.05-3.4h0L23.1-3.7h-6.95L9.9-28.2q.2 3.05.2 6.85h0q0 4.05-.2 7.45h0L9.15 0H2l2.7-34.6h9.35l5.7 23.85L25.1-34.6h9.45zm21.95-.8q3.25 0 5.65.92 2.4.93 4.7 2.83h0L63.2-27.4q-3-2.45-6.3-2.45h0q-3.7 0-5.88 3.02-2.17 3.03-2.17 9.48h0q0 6.3 2.17 9.32Q53.2-5 56.95-5h0q1.95 0 3.55-.73 1.6-.72 3.35-2.07h0l3.4 4.25q-1.85 1.9-4.58 3.12Q59.95.8 56.65.8h0Q52 .8 48.5-1.3 45-3.4 43.05-7.48q-1.95-4.07-1.95-9.87h0q0-5.65 2-9.73 2-4.07 5.5-6.19 3.5-2.13 7.9-2.13h0z" fill="#149eca"/></svg></svg></svg></svg></svg></svg></svg></g><path d="M245.816 0c68.262 0 123.6 55.338 123.6 123.6s-55.338 123.6-123.6 123.6c-35.921 0-68.262-15.323-90.846-39.789h8.514c21.199 20.828 50.265 33.675 82.332 33.674 64.885 0 117.485-52.6 117.485-117.485S310.701 6.115 245.816 6.115c-32.067 0-61.133 12.847-82.332 33.674h-8.514C177.553 15.323 209.895 0 245.816 0z" fill="#149eca" stroke="transparent"/></svg></svg>