<?xml version="1.0"?>
<svg version="1.1" xmlns="http://www.w3.org/2000/svg" width="104" height="62" style=""><path fill="#" d="M51.96,56.76l0-28l-1.68,4.2l-8.68,17.64l-4.48,0.28l-8.68-18.2l-1.4-3.92l0,28l5.32,1.12l0,3.36l-15.12,0l0-3.36l4.76-1.12l0-30.24l-4.76-1.12l0-3.08l12.6-0.28l10.136,22.4l10.584-22.12l11.76-0.28l0,3.36l-4.76,1.12l0,30.24l4.76,1.12l0,3.36l-15.68,0l0-3.36z M98.6416,33.8l-1.512-6.44s-2.968-1.12-7.168-1.12c-7.56,0-11.76,5.6-11.76,15.96c0,10.08,5.04,14.56,12.04,14.56c5.88,0,11.2-4.48,11.2-4.48l2.24,3.64s-5.6,5.88-14,5.88c-11.2,0-17.92-6.72-17.92-19.32c0-12.88,7.28-21,18.76-21c6.16,0,12.6,2.8,12.6,2.8l-0.28,9.52l-4.2,0z"/><path fill="#" d=""/></svg>
