<?xml version="1.0" standalone="no"?>
<!DOCTYPE svg PUBLIC "-//W3C//DTD SVG 20010904//EN"
 "http://www.w3.org/TR/2001/REC-SVG-20010904/DTD/svg10.dtd">
<svg version="1.0" xmlns="http://www.w3.org/2000/svg"
 width="480.000000pt" height="480.000000pt" viewBox="0 0 480.000000 480.000000"
 preserveAspectRatio="xMidYMid meet">

<g transform="translate(0.000000,480.000000) scale(0.100000,-0.100000)"
fill="#000000" stroke="none">
<path d="M1698 4489 c-77 -11 -187 -50 -256 -91 -73 -42 -198 -167 -240 -240
-76 -129 -112 -298 -93 -439 13 -97 48 -201 93 -277 42 -73 167 -198 240 -240
74 -44 188 -83 260 -90 70 -6 68 -17 -5 -25 -70 -7 -184 -47 -255 -89 -73 -42
-198 -167 -240 -240 -76 -129 -112 -298 -93 -439 22 -167 83 -291 201 -409 85
-84 156 -130 258 -166 110 -38 184 -44 570 -44 l362 0 0 1400 0 1400 -372 -1
c-205 -1 -399 -5 -430 -10z"/>
</g>
</svg>
