<?xml version="1.0" standalone="no"?>
<!DOCTYPE svg PUBLIC "-//W3C//DTD SVG 20010904//EN"
 "http://www.w3.org/TR/2001/REC-SVG-20010904/DTD/svg10.dtd">
<svg version="1.0" xmlns="http://www.w3.org/2000/svg"
 width="512.000000pt" height="512.000000pt" viewBox="0 0 512.000000 512.000000"
 preserveAspectRatio="xMidYMid meet">

<g transform="translate(0.000000,512.000000) scale(0.100000,-0.100000)"
fill="#000000" stroke="none">
<path d="M2400 4824 c-127 -23 -197 -40 -269 -65 -323 -112 -604 -372 -739
-684 -93 -216 -131 -466 -98 -655 46 -262 163 -565 411 -1065 79 -159 191
-375 249 -479 58 -105 104 -191 102 -193 -2 -2 -64 -12 -137 -23 -509 -72
-915 -229 -1095 -423 -77 -83 -108 -152 -108 -242 -1 -56 5 -82 26 -128 134
-287 687 -504 1443 -568 276 -23 725 -11 1000 27 969 132 1464 542 1108 915
-187 196 -576 346 -1092 419 -73 10 -135 20 -136 22 -2 2 41 84 96 183 136
246 381 737 461 925 166 393 225 619 215 826 -31 585 -434 1061 -1007 1189
-72 16 -372 29 -430 19z m282 -715 c101 -21 196 -75 278 -158 88 -88 132 -169
156 -281 62 -292 -116 -580 -410 -665 -84 -24 -222 -22 -306 4 -182 57 -341
220 -389 396 -80 299 113 628 412 701 66 16 190 17 259 3z m-252 -3045 c68
-112 128 -203 132 -202 5 2 64 93 132 203 l123 200 104 -2 c123 -2 260 -16
419 -44 308 -53 500 -139 500 -224 0 -110 -286 -209 -752 -262 -193 -22 -804
-25 -1003 -5 -438 43 -737 131 -794 234 -32 56 30 122 163 174 162 64 549 129
781 132 l70 1 125 -205z"/>
</g>
</svg>
